<svg width="640" height="340" xmlns="http://www.w3.org/2000/svg">
 <!-- Created with SVG-edit - http://svg-edit.googlecode.com/ -->
 <g>
  <title>Layer 1</title>
  <g id="svg_16">
   <path fill="none" stroke="#00FF00" stroke-dasharray="null" stroke-linejoin="null" stroke-linecap="null" id="b" d="m629.357056,98.468727l-2.26416,2.255264l-2.180298,2.171707l-0.838684,-1.002319l-3.689758,1.336441l1.006287,2.839943l-0.167725,2.672867l-1.006287,1.336433l-1.84491,-1.336433l-3.354309,-2.338783l-2.851196,0l-2.683594,2.338783l-2.012573,2.839973l-3.522095,2.004616l-3.186646,1.336479l-2.515808,1.336433l-0.167664,3.675201l-0.670898,2.004646l-2.515747,1.336441l-2.180359,1.002327l0,2.839943l-1.677185,1.503502l-2.348083,1.837601l-1.677185,-1.670532l-3.186584,-2.004669l-2.012634,0.668236l-4.192993,0.835243l-2.348022,2.004669l-1.174011,1.670563l-2.348083,3.341064l0.503174,2.672897l0.503113,3.174072l-1.50946,2.505829l0,2.338776l-2.180298,-0.334106l-2.012634,1.837585l0,3.8423l0.670898,2.839935l0.503174,1.503464l1.50946,2.338821l1.844788,1.503479l2.851257,2.839951l1.174011,1.50351l0.167725,1.83757l-1.50946,1.837631l0,2.004669l-0.670837,1.837601l-1.677185,1.336411l-0.335449,2.004639l0.167725,3.34111l2.683533,2.672897l-1.006348,2.672882l-2.348022,2.672897l-2.683533,2.171738l-2.851196,2.505798l-3.186584,0.334152l-3.857544,0.334122l0.167664,0.167038l-2.348022,3.842239l-2.515808,3.508179l-1.84491,-3.675247l-1.677185,0l0,1.336472l-0.167664,2.171692l-1.341797,0.835297l1.174072,3.675201l1.50946,3.675232l1.006287,2.83992l1.677185,3.675217l0.670837,3.84227l0.167786,3.174057l1.341736,2.33876l1.50946,2.004654l0.167664,1.837631l0,2.83989l-1.006287,3.84227l0.503174,3.007034l2.683472,2.83989l2.851196,1.837616l-0.167725,3.34111l-1.677124,2.505844l-1.84491,3.34108l-1.84491,3.006973l-1.341736,2.672897l-1.174011,0.167053l-2.515808,2.004639l0.335449,4.343445l1.174011,1.670532l1.84491,1.670563l0,2.004639l0,0.260651l1.84436,-1.26297l3.186646,-2.505829l3.186646,-0.835327l3.186646,-4.844543l1.677185,-2.171753l0.670837,-2.672836l3.018921,-0.334122l0.670959,-1.50351l0.670898,-2.171738l1.677368,-1.670532l0.670837,-2.004669l0.335388,-2.004639l1.174072,1.00235l1.341736,0l2.851196,-1.169403l2.180359,0.668213l2.012634,-1.169373l2.515747,1.503494l1.50946,-1.169403l1.341736,0.334091l3.186646,-0.167053l0.838562,-0.835266l-0.838562,-1.169373l-2.348083,-0.668228l-2.851196,0l0.503174,-1.837631l4.192932,-1.837601l1.174072,-2.33876l-2.515808,0l-1.84491,-3.174057l1.509521,-1.670563l1.341736,-1.503479l1.006287,-0.668228l0.838562,-1.837601l-1.174011,-1.50351l-2.180359,0.167068l-3.018921,2.171722l-0.838562,-3.007004l1.006287,-1.336426l-1.006287,-1.837631l-1.341736,0l-1.174011,-2.505814l1.174011,-1.837616l0.167725,-5.011642l-0.167725,-3.174057l1.341736,-2.338791l-0.167725,-4.176376l-2.348022,-0.501144l0.503113,-4.677551l-1.006287,-3.174057l0.838562,-1.670563l1.50946,0l2.348083,2.33876l2.012573,-2.33876l3.857605,-0.167038l5.534668,-5.178711l2.012573,-2.505859l-0.838562,-2.171692l-0.670898,-2.505829l2.348022,-1.00235l1.84491,-1.503479l-0.167908,-2.83989l-3.689819,-2.33876l-0.335449,-4.677582l-3.354309,-2.83992l-2.851257,1.169373l-6.541016,-2.505814l-2.348022,0.835281l-5.870117,-2.338791l1.677185,-2.505829l2.180298,0l1.677185,-2.83989l4.02533,-2.171753l-1.17395,-3.006989l0.838501,-1.83757l3.689819,0l2.683411,-1.336487l2.683533,2.004669l2.851196,-0.167053l0.503113,1.169373l1.509521,0l1.341675,0.835297l1.006348,2.672882l2.180298,1.169373l6.205627,1.670578l2.012634,-5.846939l2.012634,3.174057l11.907898,-3.508148l4.863831,-0.167038l-2.012634,-3.34111l0.167725,-5.011642l-1.844849,-2.004669l-0.167725,-1.503479l0.838562,-1.837631l-1.006287,-1.837631l-4.192932,-3.006989l0,-1.002289l3.857483,-0.835312l2.851196,-3.341095l-0.335449,-5.178703l0.838623,-2.839935l-0.670898,-1.837601l3.857544,-5.512787l-1.341797,-1.670593l-4.86377,-0.16703l-0.838623,-3.84227l-0.167725,-3.842293l-0.503113,-2.505814l-0.91272,-1.118904"/>
   <path fill="none" stroke="#00FF00" stroke-dasharray="null" stroke-linejoin="null" stroke-linecap="null" id="oo" d="m279.741669,141.325165l0,-2.338791l-0.807709,-1.998749l0.13681,-0.340012l-2.180298,-2.004654l-4.192963,-2.505844l-1.677185,-3.675232l-1.174072,-4.343407l1.677216,-0.835289l2.348053,0.334114l-0.167694,-2.004669l1.174011,-1.670532l2.683472,-1.336433l0.335419,-2.17173l0,-2.171707l2.012634,-1.16938l3.018951,0l2.683472,-0.501198l2.180328,-0.501152l0.838623,-1.503471l1.677185,-2.839966l0.670868,-1.67054l2.180328,-0.334122l2.515778,0l1.341736,-0.835258l1.006317,-1.002335l1.84494,-0.167046l1.677155,-1.50351l2.851196,-1.336441l6.541016,-0.167053l2.012634,-0.668228l3.689758,-2.672859l2.515778,-2.839943l2.348083,-2.505836l1.677216,-2.004684l0.503113,-2.004616l0.670898,-1.670563l0.503113,-1.670547l0,-2.505814l-0.167694,-2.338768l0,-2.004677l0.503174,-2.004654l1.677155,-2.505829l-1.174011,-3.007004l-0.838623,-2.338768l0,-1.837585l1.677246,-1.336464l2.347992,-1.002338l2.515778,-0.668209l2.18045,1.503487l1.341766,1.336433l2.012573,-0.66819l1.17395,-0.167053l1.50946,1.16938l2.683502,0.167053l0.670868,1.336426l1.006409,1.169403l2.515778,1.503487l1.509491,0.668243l1.174042,-1.503494l0.335419,-4.176376l2.180298,-0.334099l2.683533,-2.505852l0,-2.672878l2.012482,-2.33876l-1.844879,-8.185699l1.341858,-2.004662l-3.522064,-2.839931l1.50943,-1.83762l0.670898,-1.67057l0.670837,-2.672867l2.180359,0.334099l2.348053,0.16708l6.541016,5.345749l3.35437,0.334129l2.348053,3.508152l2.348053,1.50349l0,2.00465l-2.515778,1.169388l0,1.50349l1.677185,1.50349l0.167694,1.33646l3.018951,1.67054l10.230713,0.167049l2.683472,1.50349l2.515808,0.16708l2.180389,0.334099l2.180359,0.668232l2.515808,1.670551l2.515717,-2.672871l1.844879,-2.171711l2.012634,0.167049l1.509521,-3.341099l0,-3.67522l3.354309,-0.835281l2.012573,2.338772l2.180389,1.002338l2.180328,1.002331l1.677216,-1.670559l1.677185,-1.336452l1.50943,0.835293l0.503204,2.004669l2.683472,0l0.838562,2.672878l2.515808,0.16703l0.167694,-0.16703l0,1.837612l2.851227,0l2.851196,0.501141l3.35437,1.33643l3.018921,1.002338l3.689789,0.33411l3.186676,2.004669l-0.503174,1.837624l-1.677185,0.167046l-1.50943,2.171715l-0.503204,1.503487l0.503204,1.67057l3.857513,3.006958l1.677155,0.668251l0.167755,4.176384l2.012543,0l0,1.16938l0.167755,3.174019l-0.167755,1.67057l1.341797,2.171707l0.335419,2.505844l-0.167694,3.842247l0.167694,3.341087l0.503143,5.345779l-1.173981,-0.668228l-1.50946,-0.668205l-1.341736,-1.169365l-1.84494,0.167038l-1.50946,0.167053l-1.677246,1.16938l-2.18042,2.338783l-1.677032,2.171707l-1.677307,0.668236l-2.012482,0.501144l-1.84491,0.50119l-2.012634,0.501137l-3.018921,0.835304l-3.35434,-1.002335l-1.174042,-0.835289l-1.84491,-2.004662l-2.012634,-2.171677l-0.503113,-1.336464l-2.348083,-0.167046l-3.018951,-0.334114l-3.35434,2.672874l-0.335419,3.006996l0.335419,3.508163l-0.838593,3.34111l1.677216,3.174057l-0.670898,1.16938l-0.838562,2.338783l-1.509491,3.174049l0.670898,2.505806l3.35437,2.672874l1.84491,1.50351l1.84491,1.503494l1.84491,0.334106l1.677246,1.002335l1.341736,1.336441l2.515808,2.004639l2.683502,0.835312l2.012573,0.835236l1.844879,0l2.683533,1.169373l3.018921,2.505859l0.503082,2.672882l-1.341766,1.002319l0,2.338791l-1.174042,2.505798l-0.838562,1.50351l0,2.004639l1.173981,3.174072l-0.503052,3.006989l-1.84491,1.670532l-2.683502,3.174057l-3.01889,1.336472l-4.528381,1.670547l-2.180328,0.835251l-4.192993,1.670563l0.167725,1.670547l-1.174042,1.670593l-2.683441,0.167038l-1.84494,0l-1.174011,1.002319l-2.180359,3.34111l-0.670837,1.670532c0,0 -1.677307,0.501205 -2.348053,0.501205c-0.670898,0 -2.180359,0 -2.180359,0l-5.199249,-0.668228l-1.844879,-1.169388l-2.012634,-2.338791l-1.341766,0l-2.348053,0.50116l-1.174042,1.837631l-2.180298,0.167038l-2.683533,0.334152l-1.006317,2.33876l-1.341736,-0.167114l0.167603,-2.171646l-0.335419,-1.670593l-2.851227,-2.505814l-2.851196,-2.505798l-0.335419,0l-3.186646,0.835251l-1.174042,-1.169403l-0.838593,0.167053l-3.018921,-0.334106l-1.341797,-0.334091l-3.01886,-2.171722l-2.683533,2.004669l-3.857513,2.171738l-5.534668,3.34108l-0.335449,0.835281l-0.167694,3.006989l0,2.672882l0,2.33876l0.335419,2.171738l1.006317,1.837631l1.844879,1.503448l1.677307,2.004669l0.670868,1.837631l0,2.672882l-0.503174,0.501129l-2.180328,1.50354l-0.503113,1.503448l-0.503174,1.837631l-2.180359,-0.50116l-3.857513,-0.501129l-3.35437,-0.835312l0.167725,0l-3.01889,-2.004639l-2.683533,-2.171722l-3.522064,-2.171707l-0.167725,-2.839951l1.006317,-3.006989l1.50946,-2.672882l-0.335419,-2.672882l-1.174042,-1.169357l1.677155,-5.178741l1.509521,-4.677551l-0.33548,-2.171707l-1.174042,-0.501129l-2.851196,-0.334152l-3.35437,-2.004639l-2.012604,-1.670563l0,-0.668213l7.211853,0l1.006317,-1.002319l-0.167694,-1.50351l-4.360687,-2.004669l-6.037842,-0.501129l-2.851196,0.167038l-4.192993,0l-1.677124,-3.174072l-2.012573,-6.348068l-1.341797,-5.178741l1.173981,-4.009277l4.192963,0.167038l2.180328,0.167053l0,-2.171722l-1.341736,-2.004669l-3.35437,-0.668198l-3.35434,0.501129l-2.180359,2.004684l-5.534698,0.167038l-5.702423,-0.835312l-3.689789,-3.34108l-1.677185,-1.670532l-3.186646,0.167053l-2.683502,0.835297l-1.84491,0.167023l-0.670837,1.670547l-1.006317,2.839951l-4.873444,1.300674"/>
   <path fill="none" stroke="#00FF00" stroke-dasharray="null" stroke-linejoin="null" stroke-linecap="null" id="k" d="m265.290649,252.694977l1.677216,-1.336441l0.503113,-2.505798l4.192993,2.004608l2.348022,1.50354l2.683502,1.670517l4.025269,0.50119l4.86377,0.668213l3.354401,0l3.689789,2.004669l3.689789,2.004669l3.689819,2.171692l4.025238,-0.835266l3.01889,0l3.522095,0.334106l4.025238,-1.50351l2.515808,-0.50116l0.670837,-2.338776l1.677185,-3.34111l3.689789,-1.002289l2.683502,1.002289l3.018951,1.670563l3.689758,0.334106l3.689789,0.167053l2.683533,0l3.522095,1.169388l1.677185,0.668243l4.025208,-0.167053l3.018921,0l1.84491,1.169373l2.012604,2.004669l2.180359,1.837585l2.683472,1.169373l3.689819,2.672913l0.503174,-0.167053l2.180328,3.508179l2.348053,1.670532l1.84491,0.835266l3.689789,-1.670532l1.006317,-2.338806l2.683472,-2.338776l2.348083,-1.169373l1.174011,-2.171722l1.174011,-2.338776l2.012634,-1.837585l2.515747,-1.002319l2.683502,-1.670593l2.683533,-1.336441l2.012573,-1.002319l2.180328,-0.334091l1.174011,0l1.50946,-0.50119l1.50943,-0.334091l1.006378,1.670563l1.174042,2.004639l2.180359,0.50119l2.347961,-0.167053l3.35437,-0.334137l1.006378,-0.334106l1.341736,3.174057l1.174042,0.668213l2.180328,0l2.180359,-1.169403l1.677124,-1.503479l1.677216,-1.169388l1.341736,0l1.50946,-0.501144l4.192963,-0.167053l1.50943,-0.835281l1.509491,0l2.012604,0.501144l1.509491,0l2.012543,-0.668198l1.84494,0l2.515808,-0.167084l2.347992,-0.334106l1.84491,-0.167038l2.180389,0l1.677032,-0.501144l3.018951,-1.169403l2.012634,-0.668228l2.012604,2.004684l2.683472,1.336441l1.677185,2.004639l1.84491,3.006989l1.84494,2.505829l2.515717,3.174042l1.341736,2.004669l0.167725,3.006989l-1.50946,2.672882l-0.670898,2.171692l0.503204,2.672913l1.006287,1.837555l1.174042,1.336456l1.006287,3.007019l0,4.009338l0.503174,3.842255l0.335419,1.336395l2.180359,0.835358l2.851227,2.338745l2.288849,1.316254l-0.611572,0.521332l-5.870239,1.336487l-1.84494,3.675171l-1.006317,1.670502l-3.354279,-3.508118l-2.012634,2.839996l-4.863831,0.501099l-3.689819,13.197388l-6.876343,1.50351l-1.844879,4.510468l-2.180359,0.334137l-1.509491,2.505829l-6.37323,1.837555l0,4.343475l-1.509521,2.505798l-4.863831,-4.510498l-1.50946,1.50354l-2.347992,-1.00235l-2.012634,-1.336426l-2.012634,-2.171722l-6.205536,1.336456l-3.354401,1.169373l-2.348053,-1.169373l-5.366974,0.835266l-5.702423,0.835327l-3.689819,-5.345703l-5.534668,-0.668274l-5.031555,0.334137l-6.205566,-4.176361l-5.702454,0.167023l-4.025208,2.338806l-7.379608,-0.668213l-8.721344,-3.174042l-2.851227,1.670532l-2.683472,-2.505798l-2.683533,0.668182l-2.515717,-2.004639l-4.696136,1.50351l-3.018951,-2.0047l-7.379547,2.839966l-6.70874,0.334106l-7.211914,-3.675201l-7.714996,-0.50116l-9.224518,-0.50116l-8.55365,0.167053l-7.211853,-3.842255l-1.677216,-0.835327l-5.199249,0.167053l-3.504089,-0.218079l0.524109,0.273224l0.464142,-1.725677c0,0 1.341827,-3.007019 2.18045,-3.508209c0.83844,-0.50116 1.17392,-4.176361 1.17392,-4.176361l0.167664,-4.343384l2.851196,0.167023l3.522095,0.167053l3.186615,-1.837616l3.689819,-2.171692l2.683533,2.338745l2.851196,0.334137l-0.670868,-3.842255l-2.515808,-2.505798l-2.683472,-3.675262l-3.018951,-2.505798l-2.515747,-2.839935l-0.335419,-3.675232l-1.341736,-3.675201l-3.186676,-0.50116l-1.174042,-2.839996l-2.012634,-2.505798l0.838623,-3.174072l1.677155,-4.510498l-5.199219,-1.503479l-5.367004,-1.169373l-1.006317,-4.009323"/>
   <path fill="none" stroke="#00FF00" stroke-dasharray="null" stroke-linejoin="null" stroke-linecap="null" id="no" d="m448.952606,1.125l-0.337189,2.84418l-1.001007,2.6763l1.843964,7.6825l-0.505768,2.508341l-0.663818,2.665779l0.32663,2.17252l-0.15802,2.00457l-1.011536,3.180059l0.674347,2.172501l1.169556,2.17252l-1.000977,2.172501l-1.011536,0l-1.843964,-1.007542l-4.362274,-0.671698l-4.857483,0l-0.842926,6.1817l-5.194702,5.520489l-1.180145,4.502449l0.337158,5.845833l-1.169556,4.00919l0.158051,-0.15744l0,1.83667l2.855499,0l2.855469,0.493271l3.350739,1.34338l3.024109,0.997047l3.687897,0.33585l3.182129,2.004574l-0.505768,1.83667l-1.675354,0.167915l-1.506775,2.172523l-0.505768,1.500816l0.505768,1.668739l3.856506,3.012123l1.675354,0.671677l0.168549,4.177094l2.012573,0l0,1.164978l0.168579,3.16954l-0.168579,1.679245l1.338165,2.161987l0.337158,2.508369l-0.168549,3.841263l0.168549,3.347946l0.505798,5.342072l-1.169586,-0.6717l-1.517334,-0.661194l-1.338165,-1.175476l-1.843964,0.167931l-1.506775,0.167915l-1.675232,1.175453l-2.181122,2.329948l-1.685913,2.172501l-1.675354,0.671684l-2.012543,0.503777l-1.843933,0.493279l-2.012573,0.503761l-3.01355,0.839622l-3.361237,-1.007553l-1.169586,-0.829117l-1.843964,-2.004593l-2.012573,-2.172501l-0.505768,-1.343399l-2.34967,-0.157433l-3.01355,-0.335838l-3.361298,2.665794l-0.326599,3.012115l0.326599,3.505394l-0.832367,3.337479l1.675354,3.180061l-0.674377,1.164955l-0.832397,2.340424l-1.517303,3.180046l0.674347,2.497864l3.350739,2.676285l1.854492,1.500809l1.843903,1.511322l1.843994,0.325348l1.675232,1.007538l1.338287,1.332901l2.518311,2.004593l2.68692,0.83963l2.012482,0.829117l1.843872,0l2.676392,1.175461l3.024078,2.508362l0.505768,2.665787l-1.348633,1.007538l0,2.340424l-1.169647,2.497849l-0.842987,1.511322l0,2.004578l1.180237,3.169571l-0.56897,2.907181l0.737549,1.269913l1.843842,1.500809l2.012543,-1.668762l4.688904,0.167923l1.854462,0.335831l1.338226,0.661209l2.68689,2.340408c0,0 1.164276,0.168808 2.170593,0.335861c1.006287,0.167038 2.181122,-0.829132 2.181122,-0.829132l1.685913,-3.85173l2.012543,-0.493286l3.01355,-0.335861l2.012573,1.164948l1.675323,-0.493256l2.855499,-1.511322l3.182129,-1.332886l3.529846,-0.839615l1.338196,-3.841248l1.001007,-0.661209l1.685883,-1.83667l2.181152,0.493286l2.676361,-0.661179l1.506744,-1.511322l1.685913,-0.325348c0,0 1.50235,0 2.676361,0c1.174042,0 3.361267,3.169571 3.361267,3.169571l2.012512,2.508347c0,0 3.017029,0.335831 3.687927,0.335831c0.670898,0 3.350739,0.99707 3.350739,0.99707l2.349701,2.844193l3.519348,-0.503754l3.687897,0l1.517273,3.337463l2.012512,0.335846l2.676453,0.335831l3.024048,0l1.506775,4.177094l2.349731,5.677917l2.012512,-3.673309l3.519348,0.167908l1.180115,4.345001l-0.337158,3.337494l3.519287,-0.335861l2.181152,1.836639l1.506714,2.340454l1.180176,2.508347l3.350708,0l3.856506,0l0.842957,1.164963l1.169617,0.671692l3.192627,-0.167923l2.012573,-2.004578l0.326599,5.174149l1.854492,1.847137l2.676392,2.497864l3.856445,-0.335831l3.192749,-0.325363l2.84491,-2.508347l2.686951,-2.172501l2.34967,-2.67627l1.000977,-2.665802l-2.676331,-2.67627l-0.168579,-3.337463l0.337158,-2.004608l1.675354,-1.343384l0.663818,-1.83667l0,-2.004578l1.517334,-1.83667l-0.168579,-1.836639l-1.180176,-1.500824l-2.84491,-2.844177l-1.843933,-1.500839l-1.517334,-2.340424l-0.495239,-1.500809l-0.674377,-2.844208l0,-3.841263l2.012573,-1.83667l2.181091,0.335861l0,-2.340439l1.506775,-2.508347l-0.505737,-3.169571l-0.495239,-2.676285l2.349731,-3.337448l1.169617,-1.668762l2.349731,-2.004578l4.193665,-0.839607l2.012512,-0.671707l3.182129,2.004585l1.675415,1.668747l2.34967,-1.836639l1.675354,-1.500824l0,-2.833687l2.181152,-1.007553l2.518311,-1.332893l0.674377,-2.004585l0.168579,-3.683838l2.507813,-1.33287l3.192627,-1.332924l3.519287,-2.00457l2.012573,-2.844215l2.68689,-2.340446l2.844971,0l3.361267,2.340446l1.843872,1.343384l1.001038,-1.343384l0.16864,-2.665787l-1.001038,-2.844215l3.687927,-1.332893l0.832336,0.99704l2.181152,-2.172485l2.265503,-2.256485l-0.063232,-0.115486l-1.190674,-1.469315l-1.506775,0l-2.012512,-0.6717l-2.181152,-2.329941l-1.843994,-0.335838l-1.011536,-3.515892l-0.674316,-2.497856l-1.000977,-2.676277l0,-3.841255l-2.518372,-0.671707l-0.674377,-0.99704l-1.843872,-2.340454l-0.663879,-3.012115l-4.362244,-2.329941l-1.011536,-3.012123l1.180054,-1.500816l-0.168518,-8.522121l2.012512,-4.34502l2.012573,-3.673321l2.349792,-4.009167l-1.675537,-4.68087l0,-2.497852l-0.84314,-2.844238l-2.855469,-9.025881l-2.50769,-3.001621l-3.529968,2.004601l-4.857422,0l-2.349731,-2.676291l-3.687927,-0.503769l-0.505737,1.511311l-1.675354,0.82914l-0.674377,-2.172531l0,-2.8337l-2.518311,-2.340429l-3.519348,1.66873l-6.206177,-3.337481l-2.518311,1.668751l-3.350708,-0.839609l-2.68689,7.525049l-3.687927,2.665781l-1.506775,-1.33287l-1.506775,0l-1.348633,2.00457l-1.169739,-1.164961l-0.842896,0l-5.53186,0.493261l-6.037659,-1.164961l-1.675293,1.33287l-3.687927,0l-11.580017,-6.5175l-1.675354,-2.665781l-9.388367,-4.8488l-4.530884,0l-0.337158,1.17546l-0.832397,1.66873l-6.037506,-0.503769l-0.843079,-1.164961l-2.012451,-1.34338l-2.85553,-1.50084l-4.183167,-0.50377l-4.868042,-0.997029l-3.182129,-4.34502l-4.025085,0l-6.543457,-3.18006l-3.024048,1.17546l-2.676361,-1.83665l-1.180115,5.17413l-3.856506,-0.16793l-2.518341,2.00459l-2.507751,-0.325359l1.675385,-3.01211l-2.181152,-3.33748l-5.869019,0l-1.348724,-1.34339l-6.037628,-0.33584l-0.000031,0.00003l0.000061,0.00008l0.000061,0.00002l0.000061,0.00005l0.000061,0.00003zm121.500641,74.746902c0.022583,-0.002411 0.05127,0.002029 0.07373,0c0.311218,0.185196 0.642761,0.335136 0.937805,0.545746c0.755859,0.231461 0.659912,0.927513 0.674377,1.563782c0.516113,0.74469 0.173706,1.712608 0.273987,2.560837c1.205505,0.842255 2.404175,1.691475 3.58252,2.57132c0.156555,0.226112 0.311707,0.270554 0.442566,0.220413c0.292725,-0.124893 0.487366,-0.75959 0.421448,-1.091507c0.018555,-0.562111 -0.372375,-1.301643 -0.158081,-1.742203c1.054871,-0.122223 2.084045,0.229446 2.971375,0.776649c0.854248,0.309128 0.203674,0.977997 -0.020935,1.490311c-0.593689,0.669441 0.376404,0.844963 0.347778,1.500816c0.669739,0.216354 0.838989,0.954445 1.643738,0.860611c0.568787,-0.054947 1.11615,-0.350601 1.728027,-0.094429c-0.111267,1.065094 -0.566956,2.052391 -0.779724,3.096092c0.763611,-0.041763 0.783264,0.597977 1.422424,0.566742c-0.356506,0.857971 -0.501709,1.773651 -0.632202,2.686775c0.092163,0.742599 -0.248718,1.377205 -0.56897,2.025574c-0.367188,0.542755 -0.510193,1.125076 -0.273926,1.752701c0.302124,0.646507 0.237427,1.291077 -0.042175,1.931107c0.340454,0.442909 -0.30957,0.996773 -0.136963,1.616264c0.132263,0.740898 1.311646,0.250847 0.937805,-0.367332c0.176147,0.013199 0.292969,0.043526 0.358215,0.094429c0,0.001266 0.008911,0.008881 0.010132,0.010147c0,0.001274 0.008911,0.008904 0.010193,0.010162c0.003784,0.002533 0.007568,0.007614 0.010132,0.010147c0,0.001274 0.008911,0.008881 0.010193,0.010155c0.003784,0.002541 0.00885,0.007622 0.010132,0.010162c0,0.001266 0,0.008865 0,0.010147c0.140259,0.279099 -0.47229,0.851067 -0.231812,1.280418c0.013489,0.022964 0.033997,0.051399 0.052673,0.073494c0.051392,0.05864 0.125916,0.117149 0.221313,0.167915c-0.000061,0.002541 -0.000061,0.008881 0,0.010155c0.007568,0.129028 0.12323,0.405357 0.273926,0.577217c0.065491,0.072601 0.146362,0.130051 0.221252,0.146927c0.020996,0.003815 0.052551,0.002541 0.073792,0c0.09845,-0.016106 0.206787,-0.098495 0.294983,-0.304337c0.032349,0.11499 0.079712,0.203911 0.126404,0.262367c0.015259,0.017891 0.036316,0.039474 0.052673,0.052422c0.014221,0.010147 0.037476,0.024239 0.052673,0.031471c0.005066,0.002541 0.015869,0.008888 0.020935,0.010147c0.010193,0.003799 0.030945,0.008881 0.042175,0.010155c0.011414,0.002525 0.030701,-0.000671 0.042114,0c0.014465,0.000328 0.037598,0.001266 0.052673,0c0.213074,-0.023224 0.485352,-0.209274 0.800781,-0.367332c0.761536,-0.127327 0.790405,0.874641 0.379333,1.259422c0.480591,0.382385 0.643188,1.225189 0.316101,1.668747c0.146484,0.497894 0.144653,0.795387 0.042175,0.955063c-0.006348,0.007607 -0.014832,0.024109 -0.020996,0.031479c-0.003784,0.005066 -0.016479,0.016502 -0.020874,0.020943c-0.011475,0.010147 -0.029358,0.02272 -0.042175,0.031479c-0.007629,0.005066 -0.023254,0.016617 -0.031738,0.020935c-0.513245,0.251381 -1.895447,-0.674866 -2.644775,-0.766136c-1.35907,-0.224785 -1.851929,-1.753365 -3.034607,-2.298454c-0.601929,-0.602409 -1.396118,-0.221977 -2.065186,0.02095c-0.620728,-0.201279 -0.939636,-0.250267 -1.433044,0.230881c-0.300476,-0.152519 -0.511047,-0.206871 -0.674377,-0.178421c-0.037842,0.007622 -0.082458,0.026283 -0.115845,0.042023c-0.015259,0.007614 -0.038513,0.022469 -0.052673,0.031471c-0.175598,0.116516 -0.305725,0.357773 -0.484741,0.661209c-0.580383,0.37278 -0.762024,1.002838 -1.327637,1.343384c-0.632568,1.000305 -1.705383,0.823357 -2.813293,0.818619c-0.598816,0.240341 0.172119,1.199341 -0.020935,1.731735c0.063049,0.342484 0.202087,0.654274 0.200195,0.829124c-0.000305,0.008865 -0.008911,0.023857 -0.010193,0.031456c0,0.005074 0,0.01638 0,0.02095c0,0.005074 -0.008911,0.016754 -0.010193,0.020943c0,0.002525 0,0.008865 0,0.010147c0,0.002541 -0.00885,0.008888 -0.010132,0.010155c-0.007568,0.010147 -0.020142,0.023979 -0.031738,0.031456c-0.003784,0.001015 -0.00885,0.008904 -0.010132,0.010162c-0.017517,0.007607 -0.048584,0.007607 -0.07373,0.010147c-0.107971,0.006363 -0.292297,-0.029945 -0.56897,-0.136436c-0.674988,-0.647873 -0.863403,0.477982 -1.591064,0.125916c-0.087341,0.193733 -0.17395,0.306664 -0.252869,0.356834c-0.007629,0.005096 -0.023621,0.017395 -0.031738,0.020935c-0.007629,0.002541 -0.023621,0.008904 -0.031738,0.010155c-0.011414,0.002525 -0.031311,-0.000275 -0.042175,0c-0.007568,-0.000145 -0.02356,0.001007 -0.031677,0c-0.007629,-0.001274 -0.023621,-0.007614 -0.031738,-0.010155c-0.010132,-0.003799 -0.031311,-0.005066 -0.042114,-0.010147c-0.007629,-0.003807 -0.023254,-0.016243 -0.031738,-0.020943c-0.187866,-0.114105 -0.394836,-0.407745 -0.674377,-0.56675c-0.861755,-0.06295 -1.49469,-0.809326 -2.381348,-0.661186c-0.936279,-0.299484 -2.012878,-0.298828 -2.823914,-0.881599c-0.839294,-0.384499 -1.806274,-0.482483 -2.665771,-0.860603c-0.030945,0.020554 -0.066895,0.046204 -0.094788,0.073494c-0.324158,0.32608 -0.44928,1.073265 -0.674377,1.532295c-0.020569,0.129524 -0.057495,0.226173 -0.094788,0.283379c-0.017151,0.02449 -0.043823,0.048615 -0.063232,0.06295c-0.003784,0.001274 -0.008911,0.008881 -0.010132,0.010155c-0.003845,0.002525 -0.016479,0.008896 -0.020935,0.010147c-0.005127,0.002533 -0.016541,0.008881 -0.020996,0.010155c-0.005066,0.001266 -0.016113,-0.001274 -0.020874,0c-0.005127,0.001007 -0.016113,0.010147 -0.020996,0.010147c-0.080322,0.011429 -0.174805,-0.00634 -0.252869,0.010162c-0.005066,0.000977 -0.016479,-0.001274 -0.020935,0c-0.00531,0.001266 -0.016541,0.008881 -0.021179,0.010147c-0.003845,0.002533 -0.016907,0.007622 -0.020935,0.010147c-0.003845,0.001274 -0.008911,0.008881 -0.010193,0.010155c-0.016846,0.012695 -0.037842,0.032501 -0.052673,0.052429c-0.05304,0.076653 -0.091736,0.213593 -0.105347,0.451286c-0.011353,0.151489 -0.059021,0.243134 -0.115723,0.283363c-0.02301,0.014091 -0.056091,0.02018 -0.084351,0.02095c-0.298218,-0.005074 -0.851929,-0.66124 -1.095886,-0.860603c0.071228,-0.381065 -0.018127,-0.578636 -0.189636,-0.682205c-0.228577,-0.131523 -0.601196,-0.125519 -0.948364,-0.2099c-0.014832,0.010147 -0.037476,0.023346 -0.052673,0.031487c-0.005066,0.002533 -0.015808,0.007614 -0.020935,0.010155c-0.633484,0.274506 -1.532532,-1.217743 -2.465637,-0.335854c-0.941711,0.838493 -2.465149,-0.287239 -3.456055,0.703194c-0.520569,0.278847 -1.147583,0.730347 -1.664856,0.346336c0.304199,-0.637543 1.076477,-0.50251 1.622681,-0.766159c0.345337,-0.075523 0.60907,-0.217323 0.73761,-0.409325c0.00885,-0.014717 0.02356,-0.037186 0.031738,-0.052406c0.022522,-0.046204 0.0448,-0.105721 0.052673,-0.157433c0.017456,-0.135345 -0.018555,-0.291725 -0.115906,-0.461777c-0.572388,0.095703 -1.149658,0.140068 -1.717529,0.262367c0.006348,-0.641396 -0.740723,-0.991829 -0.842957,-1.647751c-0.125427,-0.127975 -0.189514,-0.236526 -0.210754,-0.314857c-0.003784,-0.008888 -0.00885,-0.023346 -0.010132,-0.031479c-0.000183,-0.002541 0.000122,-0.008881 0,-0.010147c-0.000061,-0.002563 -0.000061,-0.008904 0,-0.010162c0.000061,-0.002533 -0.000183,-0.008888 0,-0.010155c0.000183,-0.001266 -0.000244,-0.008865 0,-0.010147c0.000305,-0.001266 0.010132,-0.008888 0.010132,-0.010162c0,-0.001266 0,-0.008865 0,-0.010147c0,-0.001266 0,-0.008888 0,-0.010147c0.003784,-0.005074 0.007629,-0.016502 0.010193,-0.020943c0,-0.001266 0.00885,-0.008881 0.010132,-0.010147c0.1828,-0.24205 1.143921,-0.141624 1.380371,-0.493271c0.005066,-0.008904 0.016479,-0.022591 0.020935,-0.031479c0.003784,-0.005074 0.00885,-0.016373 0.010132,-0.020943c0.003784,-0.005074 0.00885,-0.016113 0.010132,-0.020943c0.003845,-0.007607 -0.003784,-0.023857 0,-0.031479c0,-0.007607 0.008911,-0.023361 0.010193,-0.031471c0,-0.005089 -0.000305,-0.015358 0,-0.020935c-0.718079,-0.059525 -1.42804,-0.146179 -2.138977,-0.26239c-0.129211,0.066505 -0.242188,0.097977 -0.32666,0.104965c-0.026672,0.001274 -0.061401,0.003815 -0.08429,0c-0.005066,-0.001007 -0.016113,0.001274 -0.020935,0c-0.005066,-0.001266 -0.016479,-0.008888 -0.020935,-0.010147c-0.003845,-0.001274 -0.016846,-0.008881 -0.020935,-0.010147c-0.003845,-0.001015 -0.008911,0.000977 -0.010132,0c-0.003845,-0.001015 -0.008911,-0.008904 -0.010193,-0.010162c-0.003784,-0.002533 -0.017273,-0.007614 -0.020935,-0.010155c-0.003784,-0.001266 -0.008911,-0.008896 -0.010132,-0.010147c-0.003845,-0.001266 -0.008911,-0.008881 -0.010193,-0.010147c-0.003784,-0.003815 -0.007629,-0.007622 -0.010132,-0.010162c-0.255554,-0.286697 -0.06842,-1.242683 -0.432068,-1.710716c-0.070923,-0.08847 -0.165161,-0.165001 -0.284424,-0.209923c-0.54071,-0.042641 -0.776794,-0.139778 -0.843018,-0.272881c-0.118103,-0.273102 0.427856,-0.707497 0.453125,-1.196434c0.290039,-0.387947 0.856018,-0.752266 1.085266,-1.196457c0.466125,-0.275177 0.386047,-1.041733 0.495239,-1.553291c0.22522,-0.594246 0.548218,-1.079231 -0.042114,-1.553291c0.233704,-0.236938 0.503662,-0.459557 0.600586,-0.650696c0.007629,-0.014854 0.016174,-0.037964 0.020935,-0.052444c0.003784,-0.014465 0.008911,-0.0382 0.010193,-0.052406c0,-0.011429 0,-0.030838 0,-0.042007c-0.003845,-0.022209 -0.011475,-0.052032 -0.020935,-0.073494c-0.008911,-0.018646 -0.026306,-0.04493 -0.042175,-0.062958c-0.005066,-0.005074 -0.015869,-0.015984 -0.020935,-0.020943c-0.072937,-0.06562 -0.195374,-0.131866 -0.379272,-0.188927c-0.018982,0.011406 -0.044434,0.023216 -0.063232,0.031471c-0.011414,0.003807 -0.031372,0.007607 -0.042175,0.010147c-0.007629,0.002541 -0.023621,0.008881 -0.031677,0.010147c-0.007629,0.001274 -0.023621,0.008904 -0.031799,0.010162c-0.010132,0.001274 -0.031311,-0.000252 -0.042114,0c-0.500671,0.001274 -0.950806,-0.992439 -0.621643,-1.332886c0.003784,-0.001274 0.008911,-0.008904 0.010132,-0.010155c0.003845,-0.001266 0.008911,-0.008881 0.010193,-0.010147c0.003784,-0.003815 0.016846,-0.007614 0.020935,-0.010155c0.003784,-0.001266 0.00885,-0.008865 0.010132,-0.010147c0.003784,-0.002541 0.016541,-0.007607 0.020996,-0.010147c0.005066,-0.002541 0.016113,-0.007622 0.020874,-0.010162c0.019958,-0.008873 0.050659,-0.025124 0.073792,-0.031471c0.026245,-0.006348 0.064209,-0.007607 0.094788,-0.010147c0.027649,-0.001274 0.063721,-0.002533 0.094849,0c0,-0.02018 -0.006409,-0.045181 -0.010193,-0.06295c0,-0.005074 -0.008911,-0.016121 -0.010193,-0.020943c-0.003784,-0.005066 -0.00885,-0.016373 -0.010132,-0.020943c-0.003784,-0.005089 -0.007568,-0.016617 -0.010132,-0.020935c-0.209229,-0.344704 -1.1698,-0.141914 -1.380371,-0.188911c-0.007568,-0.002541 -0.016113,-0.007614 -0.020935,-0.010147c0,-0.000343 -0.010193,0.000656 -0.010193,0c0,-0.000694 0,-0.010162 0,-0.010162c-0.000122,-0.000664 0.000122,-0.010147 0,-0.010147c0.000122,-0.000671 -0.000183,-0.010155 0,-0.010155c0,-0.001266 0,-0.008888 0,-0.010147c0.03241,-0.047211 0.150635,-0.133293 0.379395,-0.262375c0.288696,-0.408409 0.772888,-0.449867 0.937744,-0.629707c0,-0.001266 0.00885,-0.008881 0.010132,-0.010147c0.006348,-0.007622 0.016113,-0.023361 0.020996,-0.031479c0.003784,-0.003815 0.00885,-0.016632 0.010132,-0.020943c0,-0.002548 0,-0.008904 0,-0.010162c0,-0.005066 0.00885,-0.016251 0.010132,-0.020935c0,-0.007614 0,-0.023865 0,-0.031471c0,-0.007622 0.000305,-0.023232 0,-0.031479c0,-0.013962 0.003784,-0.037193 0,-0.052414c-0.800964,-0.539207 -0.608337,-1.580292 -0.41095,-2.361427c0.12207,-0.614853 0.553589,-1.073494 0.769165,-1.67923c0.169006,-0.204994 0.233582,-0.686234 0.379395,-0.923584c0.026001,-0.040611 0.062805,-0.082367 0.094788,-0.104958c0.019897,-0.012955 0.050781,-0.027283 0.07373,-0.031479c0.020203,-0.002533 0.050781,0.005066 0.07373,0.010147c0.073669,0.019287 0.167847,0.074753 0.273987,0.188904c0.909302,0.426857 1.557251,1.160286 2.223267,1.889137c0.294739,0.007607 0.518677,0.124237 0.642761,0.293846c0.163025,0.232384 0.155518,0.574333 -0.063232,0.923584c0.297607,0.730423 1.011902,0.594093 1.538391,0.377823c0.213257,0.057236 0.317688,-0.003815 0.379333,-0.104973c0.092651,-0.163834 0.082092,-0.455353 0.168579,-0.629707c0.007629,-0.015503 0.021179,-0.038963 0.031738,-0.052414c0.011414,-0.012947 0.028931,-0.031456 0.042114,-0.042023c0.065247,-0.048096 0.161499,-0.064217 0.305603,-0.031479c0.447449,-0.373016 0.642273,-0.758057 0.842896,-1.227936c-0.206055,-0.018654 -0.321167,-0.043152 -0.368774,-0.073494c-0.003784,-0.001266 -0.008911,-0.008881 -0.010132,-0.010147c-0.003845,-0.002548 -0.008911,-0.007622 -0.010193,-0.010147c0,-0.001274 0,-0.008873 0,-0.010155c0,-0.001266 -0.000122,-0.008881 0,-0.010147c0,-0.001274 0,-0.008904 0,-0.010155c0.003845,-0.005066 0.014526,-0.015228 0.020996,-0.020935c0.003784,-0.001274 0.00885,-0.008888 0.010132,-0.010155c0.012695,-0.008881 0.03479,-0.022591 0.052673,-0.031479c0.236694,-0.112946 0.86084,-0.236687 1.074768,-0.251892c0.969299,0.117012 0.827881,-0.578697 1.548889,-0.923576c0.172974,-0.140167 0.236633,-0.246117 0.231812,-0.325363c-0.003784,-0.032745 -0.027649,-0.069038 -0.052673,-0.094429c-0.1521,-0.142006 -0.59259,-0.189171 -0.716492,-0.314865c-0.003784,-0.003815 -0.007629,-0.016754 -0.010132,-0.020943c0,-0.002541 -0.008911,-0.008881 -0.010193,-0.010162c-0.003601,-0.005066 -0.00885,-0.016235 -0.010071,-0.020935c0,-0.007614 0,-0.023613 0,-0.031494c0.00647,-0.034897 0.036743,-0.078926 0.08429,-0.1259c0.26355,-0.47892 0.87793,-0.744377 1.432922,-0.68219c0.642334,0.562843 1.613403,-0.325356 1.928284,-0.766136c0.443115,0.167175 0.816345,0.16127 1.064209,-0.06295c0.018555,-0.017273 0.046204,-0.043159 0.063171,-0.06295c0.062439,-0.074753 0.116699,-0.172165 0.158081,-0.283394c0.377197,-0.351196 1.6828,-0.436646 1.169556,-1.070496c-0.078796,-0.091774 -0.113708,-0.167664 -0.115723,-0.220413c0,-0.001266 0,-0.008888 0,-0.010162c0,-0.001266 0.010071,-0.008865 0.010071,-0.010147c0.000244,-0.001266 0,-0.008881 0,-0.010147c0,-0.001274 0,-0.008904 0,-0.010155c0,-0.002541 0.00885,-0.008881 0.010132,-0.010147c0,-0.001007 0,-0.008904 0,-0.010147c0.00885,-0.011414 0.027649,-0.023865 0.042114,-0.031464c0.249207,-0.113342 1.15094,0.24485 1.106323,0.776627c-0.003784,0.017914 -0.006287,0.044693 -0.010132,0.06295c-0.003784,0.015244 -0.015869,0.036942 -0.020935,0.052444c0.610596,-0.135193 1.174988,0.653816 1.696411,0.325356c-0.142883,-0.28334 -0.140747,-0.645477 0.063232,-0.850105c0.135864,-0.130333 0.363953,-0.205635 0.684937,-0.146935c0.156677,-0.015106 0.238647,-0.063576 0.273926,-0.136436c0.128357,-0.304657 -0.527588,-1.001053 -0.273926,-1.353874c-0.043335,-0.186935 -0.011414,-0.309425 0.052673,-0.388336c0.160767,-0.180634 0.542542,-0.137833 0.716492,-0.209877c0.045959,-0.020821 0.077881,-0.058014 0.084229,-0.104973c0.003845,-0.057503 -0.027649,-0.145973 -0.105286,-0.262367c-0.20697,-0.417793 -0.010193,-0.994263 -0.368774,-1.458839c-0.083923,-0.241684 -0.035645,-0.406593 0.07373,-0.524773c0.244629,-0.252625 0.783386,-0.323547 0.916748,-0.619225c0.023987,-0.028847 0.050903,-0.046936 0.07373,-0.062973c0.011414,-0.007233 0.030945,-0.016594 0.042114,-0.021004c0.011414,-0.003677 0.031128,-0.009377 0.042114,-0.010536c0.007629,-0.000343 0.023682,-0.001015 0.031738,0c0.011414,0.002037 0.031372,0.006477 0.042175,0.010536c0.029297,0.012573 0.065369,0.037193 0.094788,0.062981c0.236267,0.214363 0.495911,0.780296 0.979919,0.640213c0.394226,-0.626915 1.213318,-0.803253 1.917725,-0.871101l-0.001587,-0.006294l0.000061,-0.000046l0.000061,0.000046l0.000061,-0.000008l0.000061,-0.000008z"/>
   <path fill="none" stroke="#00FF00" stroke-dasharray="null" stroke-linejoin="null" stroke-linecap="null" id="st" d="m435.040405,160.341904l0.790649,1.364014l1.84491,1.503479l2.012604,-1.670532l4.696106,0.167053l1.84491,0.334076l1.341736,0.668243l2.683502,2.338791c0,0 1.174042,0.167038 2.180328,0.334076c1.006317,0.167053 2.180328,-0.835297 2.180328,-0.835297l1.677277,-3.842239l2.012543,-0.501175l3.018921,-0.334106l2.012634,1.169388l1.677185,-0.501144l2.851227,-1.503525l3.186737,-1.336441l3.522003,-0.835266l1.341827,-3.842255l1.006317,-0.668228l1.677216,-1.837616l2.180298,0.50116l2.683472,-0.668198l1.50946,-1.503525l1.677216,-0.334091c0,0 1.50946,0 2.683472,0c1.174042,0 3.35434,3.174072 3.35434,3.174072l2.012634,2.505798c0,0 3.018921,0.334091 3.689819,0.334091c0.670898,0 3.35437,1.00235 3.35437,1.00235l2.348022,2.839951l3.522095,-0.50119l3.689789,0l1.509369,3.34111l2.012634,0.334137l2.683472,0.334122l3.018921,0l1.50946,4.176392l2.348083,5.679855l2.012634,-3.675217l3.522034,0.167099l1.174011,4.343399l-0.335449,3.34108l3.522095,-0.334091l2.180359,1.837631l1.50946,2.33876l1.174011,2.505798l3.35437,0l3.857544,0l0.838562,1.169403l1.174072,0.668167l3.186646,-0.167038l2.012573,-2.004639l0.335449,5.178711l1.84491,1.837616l2.851196,2.672882l-2.348022,3.842239l-2.515808,3.508179l-1.84491,-3.675217l-1.677185,0l0,1.336456l-0.167725,2.171692l-1.341736,0.835281l1.174072,3.675201l1.50946,3.675247l1.006287,2.83992l1.677185,3.675201l0.670837,3.8423l0.167725,3.174057l1.341797,2.33876l1.50946,2.004639l0.167664,1.837631l0,2.83989l-1.006287,3.8423l0.503174,3.007004l2.683472,2.839905l2.851257,1.837631l-0.167786,3.34108l-1.677124,2.505844l-1.844971,3.34108l-1.844849,3.006989l-1.341736,2.672897l-1.174072,0.167038l-2.515747,2.004669l0.335449,4.343445l1.174011,1.670563l1.84491,1.670563l0,2.004639l-0.838623,0.835297l-2.683472,0.668213l1.341736,2.171722l0,4.844574l0.503174,4.343353l1.50946,2.338837l2.012634,0.334137l0.335388,2.004639l1.509521,1.336456l0,4.343445l-1.509521,0l-3.522034,-4.510468l-1.677185,0.668121l-9.224487,-3.67514l-5.031555,1.336456l-3.522095,2.505829l-2.851196,0.668213l-1.677368,0l-2.012451,-1.169403l-2.348022,0l-1.006348,3.007019l-0.503113,1.169373l-2.683533,-1.002319l-4.696106,2.004639l0,2.171722l0,2.505859l-2.683472,2.171692l-3.857635,0.501129l-2.180359,-2.004639l-1.677216,-1.670563l-3.186615,0l-8.385925,1.169373l-7.044128,0.668182l-3.522095,-1.336426l-6.541046,1.169342l0.611725,-0.521362l-2.288849,-1.316254l-2.851257,-2.338745l-2.180389,-0.835327l-0.335419,-1.336426l-0.503113,-3.842255l0,-4.009308l-1.006348,-3.006989l-1.174011,-1.336426l-1.006348,-1.837646l-0.503113,-2.672913l0.670929,-2.171692l1.50943,-2.672882l-0.167725,-3.007019l-1.341705,-2.004639l-2.515839,-3.174011l-1.84491,-2.50589l-1.84491,-3.006927l-1.677185,-2.004669l-2.683472,-1.336441l-2.012604,-2.004669l-2.012573,0.668243l-3.018951,1.169388l-1.677216,0.501129l-2.180359,0l-1.84491,0.167038l-2.347992,0.334122l-2.515839,0.167068l-1.84491,0l-2.012512,0.668243l-1.509491,0l-2.012604,-0.50116l-1.50946,0l-1.50946,0.835297l-4.192963,0.167053l-1.50946,0.50116l-1.341766,0l-1.677185,1.169388l-1.677246,1.503448l-2.180298,1.169373l-2.180359,0l-1.174011,-0.668182l-1.341797,-3.174057l-1.006348,0.334091l-3.35437,0.334152l-2.347992,0.167038l-2.180359,-0.50119l-1.174011,-2.004654l-1.006348,-1.670547l-1.50946,0.334106l-1.509491,0.50119l-1.174011,0l-2.180328,0.334106l-2.012543,1.002335l-2.683502,1.336426l-2.683502,1.670578l-2.515778,1.002319l-2.012634,1.837616l-1.17395,2.338806l-1.174011,2.171692l-2.348053,1.169373l-2.683472,2.338806l-1.006317,2.338806l-3.68985,1.670532l-1.844849,-0.835297l-2.348053,-1.670532l-2.180359,-3.508148l-0.503174,0.167053l2.012634,-0.835327l1.84494,-2.004669l-0.167725,-2.672882l1.341736,-2.505829l1.341736,-2.672897l1.677155,-2.338745l-0.670868,-4.176376l0.838623,-2.338806l3.689789,-2.505814l1.006317,-1.503479l-0.167725,-2.171707l-3.186646,-0.835312l-1.341736,-0.835251l-2.180359,-4.510468l-1.677246,-3.34108l-1.84491,-3.007034l-2.180359,-4.510468l-2.347961,0.167053l-0.503174,1.837616l-0.670837,1.169403l-3.689819,-1.002335l-1.50943,1.336441l-1.006409,1.002319l-3.857422,-2.338745l-2.683533,-1.837631l-1.341766,-0.668213l-2.012573,-6.682205l-1.844879,-4.677536l-1.006348,-3.675232l1.173981,-5.011658l0.335449,-1.002335l-0.167664,0l3.35437,0.835297l3.857483,0.501144l2.180359,0.50119l0.503082,-1.837631l0.503113,-1.503464l2.180328,-1.50351l0.503174,-0.501129l0,-2.672882l-0.670868,-1.837616l-1.677185,-2.004684l-1.84491,-1.503479l-1.006317,-1.837631l-0.335419,-2.171738l0,-2.33876l0,-2.672867l0.167694,-3.007004l0.335419,-0.835251l5.534698,-3.34111l3.857513,-2.171707l2.683533,-2.004669l3.018921,2.171738l1.341766,0.334091l3.018921,0.334091l0.838562,-0.167023l1.174011,1.169373l3.186676,-0.835251l0.335419,0l2.851257,2.505798l2.851196,2.505829l0.335388,1.670563l-0.167694,2.171677l1.341766,0.167084l1.006287,-2.338776l2.683502,-0.334152l2.180359,-0.167038l1.174042,-1.837631l2.348053,-0.501129l1.341705,0l2.012634,2.33876l1.844879,1.169388l5.19931,0.668243c0,0 1.50943,0 2.180359,0c0.670837,0 2.348022,-0.50119 2.348022,-0.50119l0.670837,-1.670532l2.180389,-3.34111l1.174011,-1.002335l1.84494,0l2.683472,-0.167038l1.174011,-1.670593l-0.167694,-1.670517l4.192932,-1.670563l2.180359,-0.835266l4.528412,-1.670563l3.018921,-1.336411l2.683411,-3.174057l1.84491,-1.670563"/>
   <path fill="none" stroke="#00FF00" stroke-dasharray="null" stroke-linejoin="null" stroke-linecap="null" id="w" d="m570.528259,75.923851c-0.718689,0.063461 -1.582397,0.226051 -1.989319,0.873192c-0.704163,0.203766 -0.920044,-1.075653 -1.305176,-0.614342c-0.196167,0.43499 -1.261169,0.365616 -0.992981,1.138947c0.35907,0.464584 0.16925,1.044563 0.376221,1.462349c0.497803,0.74501 -0.964355,0.04454 -0.751404,0.964783c-0.318237,0.442802 0.798828,1.415527 -0.003784,1.492897c-0.821655,-0.150246 -0.987427,0.516823 -0.749939,0.987823c-0.521423,0.328484 -1.077698,-0.457657 -1.688293,-0.322456c0.270935,-0.795654 -1.615173,-1.267174 -1.021545,-0.576073c0.513245,0.633827 -0.796143,0.7201 -1.17334,1.071327c-0.203857,0.547455 -0.676819,0.640213 -1.286743,0.410103c-0.31488,0.440788 -1.285645,1.323288 -1.927917,0.760437c-0.555176,-0.062187 -1.172607,0.20784 -1.435974,0.686783c-0.46759,0.463287 1.335815,0.255333 0.484314,0.945427c-0.721008,0.344879 -0.577515,1.044189 -1.546875,0.927223c-0.360229,0.025627 -1.866455,0.338173 -0.767456,0.43792c-0.200745,0.469887 -0.392944,0.848557 -0.840393,1.221573c-0.768494,-0.174744 -0.154907,1.069977 -0.934814,0.860687c-0.526489,0.216263 -1.231567,0.36097 -1.529114,-0.369423c0.383606,-0.612419 0.119385,-1.201515 -0.579224,-1.218887c-0.666016,-0.728859 -1.320801,-1.461609 -2.230103,-1.888474c-0.617493,-0.663925 -0.604614,0.503304 -0.896973,0.857872c-0.215637,0.605743 -0.640137,1.066498 -0.762268,1.681374c-0.197388,0.78112 -0.396423,1.82473 0.404602,2.363945c0.085144,0.391853 -0.613708,0.309174 -0.987,0.837204c-1.272949,0.718529 1.014221,-0.110825 1.072205,0.62468c-0.994141,-0.060661 -0.213257,1.799736 0.472046,1.376968c0.90564,0.280777 0.298889,0.667999 -0.168579,1.141884c0.590393,0.474037 0.270752,0.962967 0.045593,1.557236c-0.109314,0.511543 -0.025635,1.28109 -0.491821,1.556274c-0.22937,0.444206 -0.799622,0.801727 -1.089661,1.18969c-0.038086,0.736305 -1.258179,1.343346 0.389526,1.473366c0.985168,0.370773 0.079956,2.497635 1.261169,1.889259c0.710938,0.116135 1.42627,0.200615 2.144287,0.260155c-0.03717,0.722717 -2.134033,0.18737 -1.242554,1.09742c0.102295,0.655907 0.844666,1.015137 0.838013,1.656517c0.567871,-0.12236 1.147217,-0.173027 1.719604,-0.268677c0.319336,0.558136 -0.035034,0.937706 -0.704712,1.084106c-0.546204,0.263634 -1.317688,0.125534 -1.621826,0.763054c0.517212,0.38401 1.144348,-0.068031 1.664856,-0.346901c0.990967,-0.990395 2.514954,0.135437 3.456665,-0.703033c0.971008,-0.917747 1.898743,0.743668 2.535645,0.300758c0.617126,0.15004 1.30896,-0.003807 1.14325,0.883514c0.332214,0.271477 1.225342,1.406181 1.288635,0.563126c0.059753,-1.049156 0.606873,-0.102417 0.737732,-0.931389c0.246277,-0.502197 0.374023,-1.350136 0.772217,-1.613235c0.859497,0.378136 1.829956,0.476837 2.669312,0.861359c0.811035,0.582771 1.890442,0.585556 2.826721,0.88504c0.886597,-0.148125 1.512573,0.59211 2.374329,0.655037c0.526123,0.299294 0.785461,1.082825 1.171082,0.227768c0.727722,0.352051 0.919739,-0.778839 1.594666,-0.130966c1.073242,0.413063 0.646484,-0.127243 0.516296,-0.834297c0.193237,-0.532394 -0.584229,-1.491295 0.014465,-1.731613c1.10791,0.005074 2.182434,0.175331 2.814941,-0.824966c0.565613,-0.340553 0.748779,-0.971352 1.329163,-1.344154c0.369629,-0.626427 0.514221,-0.969353 1.332397,-0.553986c0.493469,-0.48114 0.808777,-0.43309 1.429382,-0.231834c0.669128,-0.242981 1.466248,-0.619576 2.068237,-0.01725c1.182739,0.545097 1.66687,2.067604 3.026001,2.292389c1.059753,0.129143 3.386169,1.942459 2.728333,-0.293709c0.327087,-0.44355 0.157288,-1.279106 -0.323303,-1.661507c0.41095,-0.384804 0.389893,-1.386681 -0.371643,-1.259354c-0.57666,0.289024 -1.01178,0.668442 -1.197021,-0.017136c-0.346191,0.824768 -0.861328,-0.151634 -0.861023,-0.414703c-1.017578,-0.54158 0.736633,-1.596367 -0.450012,-1.685013c0.373901,0.618164 -0.811768,1.110321 -0.944031,0.369423c-0.172668,-0.619484 0.475281,-1.169144 0.134827,-1.612061c0.279602,-0.640053 0.350464,-1.282387 0.048218,-1.928909c-0.236267,-0.627617 -0.098755,-1.209824 0.268494,-1.752571c0.320251,-0.648346 0.668762,-1.289436 0.576721,-2.032028c0.130432,-0.913132 0.267273,-1.824684 0.62384,-2.682663c-0.639282,0.031235 -0.652527,-0.612686 -1.416199,-0.570946c0.21283,-1.043694 0.664246,-2.024689 0.775574,-3.089783c-0.611938,-0.256149 -1.157837,0.038963 -1.726685,0.093933c-0.804749,0.093796 -0.975403,-0.65007 -1.645142,-0.866425c0.028687,-0.655846 -0.937256,-0.832047 -0.343567,-1.501495c0.224792,-0.512314 0.876587,-1.178925 0.022217,-1.488083c-0.887329,-0.547203 -1.921021,-0.894081 -2.975891,-0.771896c-0.214294,0.440567 0.178406,1.173805 0.159973,1.735947c0.095947,0.48278 -0.351685,1.612137 -0.86554,0.870056c-1.178345,-0.879837 -2.378357,-1.730164 -3.583923,-2.572426c-0.100281,-0.848244 0.246399,-1.807747 -0.269775,-2.552422c-0.014465,-0.636276 0.075378,-1.334488 -0.68042,-1.565948c-0.295044,-0.210609 -0.62677,-0.3647 -0.937988,-0.549904l0.000427,0.000145l-0.000061,0l-0.000061,-0.000023l-0.000061,-0.000015l-0.000061,0.000008z"/>
   <path fill="none" stroke="#00FF00" stroke-dasharray="null" stroke-linejoin="null" stroke-linecap="null" id="s" d="m265.062744,252.772476l1.677185,-1.336441l0.503174,-2.505798l4.192963,2.004639l2.348053,1.50351l2.683472,1.670547l4.025208,0.501175l4.863831,0.668198l3.354401,0l3.689789,2.004654l3.689758,2.004669l3.68985,2.171722l4.025238,-0.835297l3.018951,0l3.522034,0.334106l4.025238,-1.503479l2.515808,-0.50119l0.670868,-2.338745l1.677185,-3.341141l3.689758,-1.002289l2.683502,1.002289l3.018951,1.670578l3.689789,0.334091l3.689789,0.167038l2.683502,0l3.522095,1.169434l1.677185,0.668213l4.025208,-0.167053l3.018921,0l1.84491,1.169403l2.012634,2.004669l2.180328,1.837585l2.683502,1.169403l3.689789,2.672882l2.012634,-0.835297l1.84491,-2.004639l-0.167725,-2.672913l1.341705,-2.505798l1.341736,-2.672958l1.677185,-2.33876l-0.670807,-4.176361l0.838562,-2.338806l3.689789,-2.505814l1.006317,-1.503479l-0.167633,-2.171707l-3.186737,-0.835312l-1.341736,-0.835251l-2.180298,-4.510498l-1.677216,-3.34108l-1.844879,-3.007004l-2.180359,-4.510498l-2.348053,0.167053l-0.503174,1.837616l-0.670868,1.169403l-3.689789,-1.00235l-1.50946,1.336426l-1.006317,1.00235l-3.857513,-2.338776l-2.683533,-1.837631l-1.341736,-0.668198l-2.012604,-6.68222l-1.844879,-4.677536l-1.006317,-3.675232l1.174042,-5.011658l0.335419,-1.00235l-3.018921,-2.004654l-2.683502,-2.171707l-3.522095,-2.171692l-0.167725,-2.839981l1.006439,-3.006989l1.50943,-2.672882l-0.33548,-2.672836l-1.17395,-1.169403l1.677185,-5.178711l1.509491,-4.677536l-0.33548,-2.171722l-1.174011,-0.50116l-2.851227,-0.334137l-3.354309,-2.004623l-2.012634,-1.670578l0,-0.668213l7.211853,0l1.006317,-1.002304l-0.167725,-1.50351l-4.360657,-2.004669l-6.037872,-0.501129l-2.851196,0.167038l-4.192932,0l-1.677216,-3.174057l-2.012604,-6.348083l-1.341766,-5.178696l1.174072,-4.009323l4.192841,0.167053l2.18042,0.167038l0,-2.171738l-1.341827,-2.004669l-3.354401,-0.668198l-3.35437,0.501129l-2.180359,2.004669l-5.534668,0.167038l-5.702454,-0.835266l-3.689758,-3.34111l-1.677063,-1.670532l-3.186768,0.167053l-2.683502,0.835297l-1.84491,0.167053l-0.670868,1.670517l-1.006317,2.839951l-4.873413,1.300659l-0.158112,-0.29834l1.174042,1.503479l1.174011,1.336472l2.683472,1.002319l3.857544,5.679871l4.192932,6.68222l-3.01889,6.348099l-2.515808,2.83989l0.167725,3.675232l-1.677185,3.508179l1.174011,1.670532l5.702454,0l2.515778,-2.171722l3.689789,3.675201l1.341736,3.34111l2.012634,3.675247l-2.180328,2.33876l-0.167725,4.343414l-1.677216,0l-0.670868,1.670578l1.509491,1.670532l-1.509491,2.171738l-0.167694,1.837631c0,0 1.006287,2.004639 1.844879,2.004639c0.838623,0 -0.335419,2.83992 -0.335419,2.83992l-2.180359,0.835281l-1.173981,2.672867l-1.84491,-2.33876l-2.348083,1.503525l-6.373322,-3.8423l-0.167694,-1.503464l-4.025208,-3.508148l-2.683502,0l-2.180359,-4.510483l1.174042,-3.675232l2.180328,-0.334106l-1.174011,-2.33876l-4.192932,-2.004684l0.167694,-2.672836l-2.851227,-1.503494l-1.677155,0.501129l-3.522095,-0.167038l-2.683502,1.336441l-2.851196,-0.167038c0,0 -1.593353,3.800507 -2.851196,4.844589l-0.167755,-0.334122l1.006317,3.84227l2.683502,1.670578l3.018921,1.336411l0.335419,3.675232l0,2.505798l1.677216,2.004654l1.341736,1.837616l-2.348053,3.842255l-1.50946,2.004669l-0.670868,2.839981l-0.838593,2.83989l-1.844879,2.505814l-2.180359,1.00235l-3.35434,0l-4.528412,4.343399l0.167694,2.505829l-7.715027,3.006989l-4.192947,-2.839951l-1.844894,0.668213l-3.018951,2.672882l-4.863815,2.171707l-3.689804,2.004669l-4.696091,-0.334091l-2.180328,1.169403l1.006317,4.009277l-1.174072,2.171722l0.16777,4.844604l0.335388,3.842285l2.515793,1.002335l1.341721,1.503479l0.16777,4.009338l0,3.675232l0.035629,-0.245056l2.312393,-0.506714l4.192917,-0.918823l2.009171,1.500031l0.171188,0.170563l4.696121,-1.169403l3.857513,-2.672913l1.174042,-2.004639l1.006302,-2.839951l3.857513,-1.002319l3.018936,0.668228l3.018906,-2.672897l2.515793,1.50351l2.180313,0.501144l3.186646,0l4.025238,2.839951l1.341766,1.503479"/>
   <path fill="none" stroke="#00FF00" stroke-dasharray="null" stroke-linejoin="null" stroke-linecap="null" id="t" d="m230.814758,174.898422l-3.024078,2.340424l-3.519318,2.004578l2.181137,5.342087l0.337158,5.845825l-3.69841,0.839615l-9.556961,-1.164963l-1.169586,0.829132l-2.181122,-0.829132l-12.581039,3.337463l-0.674347,2.676285l-5.53186,-1.007553l-8.893112,0.83963l-3.01355,-1.175446l-3.856491,3.347946l0,4.502441l-2.349716,2.67627l-5.53186,0.671692l-5.036621,-1.175461l-4.362259,5.35257l2.012527,0.493271l-0.495224,2.508347l-4.868042,-0.167908l-3.856491,3.515869l-0.505768,2.004593l-2.518311,2.004578l-2.84494,-0.503769l1.843964,-3.012131l-1.675385,-1.332901l-2.349716,0.503769l-3.519333,0.99707l-4.02507,4.345032l-4.868027,-0.503769l-3.687897,1.007538l-3.856514,-2.172501l1.675385,-2.340439l-5.869034,-7.514542l-3.529846,0.335831l-1.001015,-1.836655l3.687912,-2.508377l-3.013565,-2.676254l-5.869034,2.340424l-3.361259,0l-0.663834,-2.172501l-3.361267,0.167908l-2.349716,-2.844193l-4.688911,0.167908l-2.686905,-1.500778l-2.686897,2.508362l-0.168587,2.004578l-4.520309,0l-3.529854,-2.340408l0.674362,-2.172501l-0.168594,-1.500809l-4.530846,1.332886l2.181129,2.676285l-1.675354,2.508347l1.180115,2.162003l-1.011543,2.004578l3.024078,1.67923l0.832413,6.507019l-3.687897,4.512955l-0.337173,2.508347l-1.675369,-0.167908l-2.349716,2.508347l0.842949,1.164993l-4.868034,6.181671l-2.349716,0l-2.349724,2.340408l-3.687897,1.500809l-2.518322,-0.503769l-2.6553,0.829132l-0.021069,0.178375l1.169609,4.009201l1.348709,3.673309l0.495239,3.347992l-0.66383,3.505432l-1.843948,3.673279l-2.34972,3.505402l-0.842949,2.508331l0.505779,2.844238l-1.675369,3.169586l-0.337181,1.500763l0.83242,3.180084l0.168591,2.833649l-1.338192,3.180054l-3.024078,2.340454l0.337181,4.009216l2.855499,1.668671l-0.158051,4.77536l3.845951,0.062958l3.024067,-2.329926l3.519321,-1.007568l0.168579,-3.337494l1.000999,-3.5159l4.530865,0.83963l1.338165,-0.503754l-0.495216,-2.004578l2.012535,-1.668762l1.843964,-5.006195l1.338188,0.15741l1.506767,-0.493256l3.856483,2.497833l0.505783,2.172516l4.362236,3.5159l-2.012543,5.174133l0.505783,1.83667l3.350723,2.340393l5.700439,0.335876l5.036629,-2.508331l4.69944,0.167908l2.507767,2.508331l3.856483,0.99707l0.505775,2.004578l-2.349716,3.012115l2.181107,0.503784l2.518333,-1.175446l1.675346,2.004547l3.687912,0.335846l2.518311,1.668762l6.374802,-1.500824l5.194679,1.164978l1.011536,-3.673309l3.182129,-2.83371l0,-4.848785l2.181152,-2.172546l-0.505783,-4.345001l6.71199,-7.850403l6.206223,-0.503784l6.543381,-2.172516l3.856506,0.671722l2.181122,1.500793l3.350739,-0.829102l3.687912,-4.848785l2.012527,0l2.855469,2.50827l6.374832,-2.6763l8.555908,2.508362l1.843964,1.83667l3.182159,0l0.337158,-2.172546l5.036652,-0.503754l9.894119,-5.677917l9.72551,-2.508362l2.68689,-3.001617l1.843948,-0.409302l0,-3.431946l-0.168579,-4.009171l-1.348709,-1.500793l-2.507782,-1.007538l-0.337158,-3.841263l-0.16861,-4.848785l1.169601,-2.172531l-1.000992,-4.009171l2.181122,-1.164963l4.688889,0.335861l3.698441,-2.004578l4.857483,-2.172501l3.024109,-2.67627l1.843948,-0.661194l4.193665,2.83371l7.712997,-3.001648l-0.168594,-2.508362l4.530853,-4.345016l3.350723,0l2.181122,-0.99707l1.843964,-2.508331l0.842926,-2.844208l0.663849,-2.833679l1.517303,-2.004623l2.339203,-3.85173l-1.338196,-1.836639l-1.675385,-2.004608l0,-2.497864l-0.337158,-3.683807l-3.01355,-1.332901l-2.68689,-1.668747l-0.927246,-3.536911l-2.096909,-0.640213l-2.507767,1.83667l-5.205231,-4.344986l-1.675339,-3.673355l-5.700455,1.500809l-3.361267,-0.99704l-5.869019,2.004578l-1.338211,-3.180069l1.843964,-2.497849l-0.832413,-1.175461l0,0.000031l0.000031,0.000031l0.000046,0.000031l0.000015,0.000031l0,0.000015zm26.742584,11.166901l0.084259,0.031479l-0.168579,-0.335846l0.084259,0.304367l0.000061,0zm-34.961349,71.787277l4.425491,-0.941071l2.128448,-0.437317l2.044144,1.619751l-2.065231,-1.668701l-3.12944,0.682159l-3.403442,0.745178l0.000031,0zm8.598099,0.241364l0.621658,0.503784l-3.013535,5.845825l-5.37381,1.332886l0,6.181702l2.518311,3.673279l0.337173,2.508392l5.026108,3.169525l3.529861,-0.325317l1.169571,1.164948l2.855499,5.184662l-1.348724,6.507019l3.361252,1.343384c0,0 2.679871,-0.335022 3.350739,-0.167908c0.002533,0.000641 0.007614,-0.001007 0.010162,0c0.010147,0.003784 0.031097,0.013672 0.04213,0.020905c0.695404,0.499451 2.128448,6.821899 2.128448,6.821899l3.687912,2.172516l11.738052,5.35257l4.025085,0.493256l4.362274,-0.083893l0.705963,0.640198l0.474152,-1.721191c0,-0.000031 1.33139,-2.986755 2.170593,-3.505402c0.838593,-0.50119 1.180115,-4.177094 1.180115,-4.177094l0.16861,-4.345001l2.84494,0.167999l3.529846,0.167969l3.182159,-1.8367l3.687927,-2.172607l2.68689,2.340424l2.855499,0.325348l-0.674377,-3.841248l-2.518311,-2.497833l-2.68692,-3.683838l-3.013519,-2.497864l-2.518341,-2.844208l-0.337158,-3.673309l-1.338196,-3.67334l-3.182129,-0.503723l-1.180115,-2.844269l-2.012543,-2.497711l0.842926,-3.180054l1.675385,-4.512939l-5.2052,-1.500824l-5.363281,-1.164948l-1.001007,-4.009247l-1.348724,-1.511307l-4.025085,-2.83371l-3.182129,0l-2.181122,-0.503769l-2.518311,-1.500824l-3.01355,2.665771l-3.024078,-0.661179l-3.856522,0.99704l-1.000992,2.844208l-1.18013,2.004593l-3.856491,2.676239l-4.699448,1.165009l-0.115891,0l0.000412,0l-0.000031,0l0.000015,-0.000031l0,-0.000031l0,-0.000031zm-179.664143,33.51123l-0.168591,0l0.158062,0.398804l0.01054,-0.398804l-0.000011,0z"/>
   <path fill="none" stroke="#00FF00" stroke-dasharray="null" stroke-linejoin="null" stroke-linecap="null" id="v" d="m51.53009,292.073242l0.167709,-5.178711l-2.8512,-1.670563l-0.335438,-4.009308l3.018917,-2.338806l1.34174,-3.174011l-0.167709,-2.839935l-0.838589,-3.174072l0.33543,-1.503448l1.677181,-3.174072l-0.503151,-2.839935l0.838577,-2.505798l2.348072,-3.508179l1.844891,-3.675293l0.670868,-3.508148l-0.503147,-3.34111l-1.341763,-3.507278l-1.186768,-3.948441l-0.03595,-0.096939l0,-1.837631l1.174019,-1.503464l2.18034,-0.501205l0.670868,-1.670532l-0.670868,-2.839935l2.012619,-3.675232l-0.838581,-2.672867l-3.6898,-1.002335l-2.180328,2.83992l-3.186649,-0.501144l-1.84491,2.004684l-0.335442,-4.84462l-1.844898,-1.503494l2.851208,-1.837616l-0.503139,-3.174042l-1.341751,-1.837616l-2.51577,-0.835281l0,-2.505829l-1.34174,0l-2.348057,1.670547l-0.838581,-1.169388l0,-2.83992l-2.68351,-1.837631l-1.00631,-2.505829l-3.857521,1.837631l-1.844891,-2.338791l-2.01263,1.670532l-3.354359,-2.004654l0.167719,-3.173996l-1.50947,-1.837631l-3.68981,0.167038l-1.509449,3.508163l-2.01263,3.675186l-9.05677,0.501221l-3.68981,-0.334106l-1.17403,3.842239l0.8386,1.670517l2.51577,3.007004l4.69611,1.503479l-1.00631,4.009338l2.51577,3.006989l0,2.839951l-2.85121,1.002319l-2.34805,0.334122l-2.18034,5.011673l-2.51578,3.006958l-2.34805,4.009308l3.01894,2.839951l-1.17403,1.837631l2.34806,2.672852l-0.33544,4.677536l1.50947,1.503525l2.34805,2.83992l0.50316,2.171692l0.16771,3.174042l-1.67718,4.510498l3.018929,0.50116l2.851211,-0.668213l6.70873,3.341095l2.683491,0l3.186649,1.837616l3.68981,0.167053l2.180328,3.341095l-1.341747,2.505829l0,1.503479l0.167728,3.341125l2.012619,0.334106l2.012623,3.174042l3.689789,-0.334137l1.6772,1.336487l1.844891,0l3.6898,3.174011l0.167709,1.50351l2.683491,0.167053l2.368401,1.699249"/>
  </g>
 </g>
</svg>